<?xml version="1.0" encoding="UTF-8"?>
<svg width="1200pt" height="1200pt" version="1.1" viewBox="0 0 1200 1200" xmlns="http://www.w3.org/2000/svg">
 <path d="m825 75c-42.602-0.21094-84.75 8.7539-123.57 26.293-38.828 17.535-73.418 43.23-101.43 75.332-28.008-32.102-62.598-57.797-101.43-75.332-38.824-17.539-80.973-26.504-123.57-26.293-79.566 0-155.87 31.605-212.13 87.867-56.262 56.262-87.867 132.57-87.867 212.13 0 209.25 312.38 552.75 498.38 739.12 7.043 7.0977 16.625 11.094 26.625 11.094s19.582-3.9961 26.625-11.094c186-186.38 498.38-529.88 498.38-739.12 0-52.66-13.863-104.39-40.191-150-26.332-45.605-64.203-83.477-109.81-109.81-45.605-26.328-97.34-40.191-150-40.191zm112.5 337.5h-75v75c0 13.398-7.1484 25.777-18.75 32.477-11.602 6.6992-25.898 6.6992-37.5 0-11.602-6.6992-18.75-19.078-18.75-32.477v-75h-75c-13.398 0-25.777-7.1484-32.477-18.75-6.6992-11.602-6.6992-25.898 0-37.5 6.6992-11.602 19.078-18.75 32.477-18.75h75v-75c0-13.398 7.1484-25.777 18.75-32.477 11.602-6.6992 25.898-6.6992 37.5 0 11.602 6.6992 18.75 19.078 18.75 32.477v75h75c13.398 0 25.777 7.1484 32.477 18.75 6.6992 11.602 6.6992 25.898 0 37.5-6.6992 11.602-19.078 18.75-32.477 18.75z"/>
</svg>
